<svg xmlns="http://www.w3.org/2000/svg" width="48" height="48" fill="none"><g clip-path="url(#a)"><path fill="#fff" d="M0 0h48v48H0z"/><path fill="#fff" d="M0 0h8v8H0z"/><path fill="#c4c4c4" d="M8 0h8v8H8z"/><path fill="#fff" d="M16 0h8v8h-8z"/><path fill="#c4c4c4" d="M24 0h8v8h-8z"/><path fill="#fff" d="M32 0h8v8h-8z"/><path fill="#c4c4c4" d="M40 0h8v8h-8z"/><path fill="#fff" d="M48 8h-8v8h8z"/><path fill="#c4c4c4" d="M40 8h-8v8h8z"/><path fill="#fff" d="M32 8h-8v8h8z"/><path fill="#c4c4c4" d="M24 8h-8v8h8z"/><path fill="#fff" d="M16 8H8v8h8z"/><path fill="#c4c4c4" d="M8 8H0v8h8z"/><path fill="#fff" d="M0 16h8v8H0z"/><path fill="#c4c4c4" d="M8 16h8v8H8z"/><path fill="#fff" d="M16 16h8v8h-8z"/><path fill="#c4c4c4" d="M24 16h8v8h-8z"/><path fill="#fff" d="M32 16h8v8h-8z"/><path fill="#c4c4c4" d="M40 16h8v8h-8z"/><path fill="#fff" d="M48 24h-8v8h8z"/><path fill="#c4c4c4" d="M40 24h-8v8h8z"/><path fill="#fff" d="M32 24h-8v8h8z"/><path fill="#c4c4c4" d="M24 24h-8v8h8z"/><path fill="#fff" d="M16 24H8v8h8z"/><path fill="#c4c4c4" d="M8 24H0v8h8z"/><path fill="#fff" d="M0 32h8v8H0z"/><path fill="#c4c4c4" d="M8 32h8v8H8z"/><path fill="#fff" d="M16 32h8v8h-8z"/><path fill="#c4c4c4" d="M24 32h8v8h-8z"/><path fill="#fff" d="M32 32h8v8h-8z"/><path fill="#c4c4c4" d="M40 32h8v8h-8z"/><path fill="#fff" d="M48 40h-8v8h8z"/><path fill="#c4c4c4" d="M40 40h-8v8h8z"/><path fill="#fff" d="M32 40h-8v8h8z"/><path fill="#c4c4c4" d="M24 40h-8v8h8z"/><path fill="#fff" d="M16 40H8v8h8z"/><path fill="#c4c4c4" d="M8 40H0v8h8z"/><path fill="#000" d="M16.254 22.294q-1.155 0-2.142-.42a5.5 5.5 0 0 1-1.722-1.197 5.3 5.3 0 0 1-1.134-1.764 6.1 6.1 0 0 1-.4-2.226q0-1.89.736-3.465a8.6 8.6 0 0 1 2.058-2.73 9.6 9.6 0 0 1 3.045-1.785q1.743-.651 3.738-.651.735 0 1.302.147.567.126.987.273.399.126.63.21a1.8 1.8 0 0 0 .756.042.8.8 0 0 0 .273-.105q.168-.105.315-.168a.9.9 0 0 1 .315-.063q.21 0 .252.147.063.126-.084.357-.273.357-.588 1.008t-.588 1.365q-.252.693-.42 1.239-.063.21-.168.357-.105.126-.336.126-.21 0-.294-.294a2.7 2.7 0 0 1-.063-.798 2.3 2.3 0 0 0-.105-.924 3.1 3.1 0 0 0-.378-.882 3.2 3.2 0 0 0-.82-.903 1.7 1.7 0 0 0-1.028-.357q-1.113 0-2.058.609-.945.588-1.68 1.596-.715.987-1.24 2.226-.503 1.239-.776 2.562a13 13 0 0 0-.252 2.478q0 .777.168 1.365t.504.987.84.588 1.176.189q.819 0 1.596-.357a6.3 6.3 0 0 0 1.554-1.071q.756-.693 1.47-1.617.168-.231.273-.399.126-.168.273-.168.168 0 .273.168a.44.44 0 0 1 .063.399q-.147.525-.378 1.197-.231.651-.504 1.239a9 9 0 0 1-.525.987q-.231.378-.378.378-.21 0-.315-.084a6 6 0 0 1-.231-.147.9.9 0 0 0-.315-.126q-.168-.063-.504-.063-.252 0-.546.084a9 9 0 0 0-.651.168q-.378.084-.882.168-.483.105-1.092.105m13.258 0q-1.407 0-2.541-.672t-1.806-1.89-.672-2.814a8.5 8.5 0 0 1 .672-3.339 9.5 9.5 0 0 1 1.89-2.835 9.2 9.2 0 0 1 2.793-1.953 8 8 0 0 1 3.402-.735q1.407 0 2.54.672a4.84 4.84 0 0 1 1.828 1.89q.672 1.197.672 2.814a8.25 8.25 0 0 1-.693 3.318 9.6 9.6 0 0 1-1.911 2.856 9.2 9.2 0 0 1-2.793 1.974 8.1 8.1 0 0 1-3.381.714m-.021-.819q.861 0 1.68-.63.819-.651 1.533-1.701.714-1.071 1.26-2.331t.84-2.499q.315-1.239.315-2.247 0-.882-.21-1.617-.19-.756-.61-1.197a1.38 1.38 0 0 0-1.07-.462q-.861 0-1.68.651t-1.533 1.722a15.5 15.5 0 0 0-1.24 2.352q-.525 1.26-.84 2.52-.293 1.26-.293 2.268 0 .861.189 1.596.189.714.588 1.155.42.42 1.07.42M16.58 40.294q-1.407 0-2.54-.672-1.135-.672-1.807-1.89t-.672-2.814a8.5 8.5 0 0 1 .672-3.339 9.5 9.5 0 0 1 1.89-2.835 9.2 9.2 0 0 1 2.793-1.953 8 8 0 0 1 3.402-.735q1.407 0 2.541.672a4.84 4.84 0 0 1 1.827 1.89q.672 1.197.672 2.814a8.25 8.25 0 0 1-.693 3.318 9.6 9.6 0 0 1-1.91 2.856 9.2 9.2 0 0 1-2.794 1.974 8.1 8.1 0 0 1-3.38.714m-.02-.819q.86 0 1.68-.63.818-.651 1.532-1.701.714-1.071 1.26-2.331t.84-2.499q.315-1.239.315-2.247 0-.882-.21-1.617-.189-.756-.609-1.197a1.38 1.38 0 0 0-1.07-.462q-.862 0-1.68.651-.82.651-1.534 1.722a15.5 15.5 0 0 0-1.239 2.352q-.525 1.26-.84 2.52-.294 1.26-.294 2.268 0 .861.19 1.596.188.714.587 1.155.42.42 1.071.42m7.84.63q-.188 0-.252-.105-.063-.105-.041-.231.083-.315.546-.441.755-.231 1.113-.441.357-.231.567-.882l2.96-9.576q.21-.672.021-.924-.189-.273-.966-.483-.168-.042-.23-.147a.47.47 0 0 1-.021-.315.38.38 0 0 1 .189-.231.56.56 0 0 1 .273-.084 28 28 0 0 1 2.142.084q.566.021.986.021t1.009-.021l1.217-.042a31 31 0 0 1 1.05-.021q.336 0 .232.315-.063.21-.19.294a1.3 1.3 0 0 1-.336.147q-.63.168-.986.336a1.45 1.45 0 0 0-.526.42q-.167.252-.294.672l-2.561 8.316q-.441 1.449-.253 1.932.21.462.799.462h.546a5.8 5.8 0 0 0 1.533-.189 4.8 4.8 0 0 0 1.239-.546q.608-.42 1.05-.987.441-.588.776-1.302.085-.168.21-.294.126-.126.252-.126.106 0 .169.147a.5.5 0 0 1 .084.273q0 .336-.148.84a9 9 0 0 1-.336 1.008q-.21.525-.44.987-.21.462-.4.735a2 2 0 0 1-.188.273.36.36 0 0 1-.294.126q-.295 0-1.135-.021-.819-.021-1.932-.042-1.113 0-2.288-.021-1.155-.021-2.1-.021-.63 0-1.533.042-.904.063-1.513.063"/></g><defs><clipPath id="a"><path fill="#fff" d="M0 0h48v48H0z"/></clipPath></defs></svg>
